<?xml version="1.0" encoding="utf-8"?>
<!-- Generator: Adobe Illustrator 16.0.4, SVG Export Plug-In . SVG Version: 6.00 Build 0)  -->
<!DOCTYPE svg PUBLIC "-//W3C//DTD SVG 1.1//EN" "http://www.w3.org/Graphics/SVG/1.1/DTD/svg11.dtd">
<svg version="1.1" id="レイヤー_1" xmlns="http://www.w3.org/2000/svg" xmlns:xlink="http://www.w3.org/1999/xlink" x="0px"
	 y="0px" width="62.329px" height="202.5px" viewBox="0 0 62.329 202.5" enable-background="new 0 0 62.329 202.5"
	 xml:space="preserve">
<g display="none">
	
		<linearGradient id="SVGID_1_" gradientUnits="userSpaceOnUse" x1="-978.9233" y1="559.2227" x2="-968.731" y2="559.2227" gradientTransform="matrix(0.6943 -4.670327e-04 -6.849703e-04 -1 707.6284 676.4248)">
		<stop  offset="0.1068" style="stop-color:#363636"/>
		<stop  offset="0.184" style="stop-color:#1F1F1F"/>
		<stop  offset="0.2627" style="stop-color:#303030"/>
		<stop  offset="0.5444" style="stop-color:#121212"/>
		<stop  offset="0.8736" style="stop-color:#000000"/>
		<stop  offset="0.9281" style="stop-color:#000000"/>
	</linearGradient>
	<path display="inline" fill="url(#SVGID_1_)" d="M32.362,178.657c2.908-0.003,2.283-14.484,2.283-14.484
		C32.946,61.799,32.944,62.116,32.944,59.902c0-1.855-1.855-3.245-1.855-3.245l0,0c0,0-1.854,1.393-1.853,3.249
		c0.002,1.854-1.559,104.271-1.559,104.271s-0.604,14.482,2.305,14.48H32.362z"/>
</g>
<g display="none">
	
		<linearGradient id="SVGID_2_" gradientUnits="userSpaceOnUse" x1="-1132.5591" y1="11.1055" x2="-1122.3647" y2="11.1055" gradientTransform="matrix(0.7664 -1.883235e-04 -2.364367e-04 -1 895.2572 128.5498)">
		<stop  offset="0.1068" style="stop-color:#813636"/>
		<stop  offset="0.184" style="stop-color:#5C1F1F"/>
		<stop  offset="0.2627" style="stop-color:#673030"/>
		<stop  offset="0.5444" style="stop-color:#4E1212"/>
		<stop  offset="0.8736" style="stop-color:#560000"/>
		<stop  offset="0.9281" style="stop-color:#680000"/>
	</linearGradient>
	<path display="inline" fill="url(#SVGID_2_)" d="M32.48,178.656c3.21-0.002,2.53-14.482,2.53-14.482
		c-1.824-102.375-1.824-102.059-1.823-104.27c-0.001-1.856-2.049-3.248-2.049-3.248l0,0c0,0-2.045,1.392-2.045,3.249
		c0.001,1.854-1.777,104.27-1.777,104.27s-0.674,14.482,2.536,14.483L32.48,178.656z"/>
</g>
<g>
	
		<linearGradient id="SVGID_3_" gradientUnits="userSpaceOnUse" x1="-958.144" y1="246.5645" x2="-947.9512" y2="246.5645" gradientTransform="matrix(0.4676 0 -5.626678e-05 -1.6162 476.7856 501.4134)">
		<stop  offset="0.0719" style="stop-color:#424242"/>
		<stop  offset="0.2305" style="stop-color:#8F8F8F"/>
		<stop  offset="0.4556" style="stop-color:#8A8A8A"/>
		<stop  offset="0.7373" style="stop-color:#7A7A7A"/>
		<stop  offset="0.8401" style="stop-color:#575757"/>
		<stop  offset="0.8932" style="stop-color:#8C8C8C"/>
	</linearGradient>
	<path fill="url(#SVGID_3_)" d="M31.967,201.5c1.957,0.001,1.543-23.404,1.543-23.404C32.409,12.644,32.409,13.156,32.409,9.578
		c0-2.998-1.249-5.247-1.249-5.247l0,0c0,0-1.248,2.25-1.248,5.249s-1.095,168.516-1.095,168.516s-0.412,23.406,1.546,23.404H31.967
		z"/>
</g>
</svg>
