<?xml version="1.0" encoding="utf-8"?>
<!-- Generator: Adobe Illustrator 16.0.4, SVG Export Plug-In . SVG Version: 6.00 Build 0)  -->
<!DOCTYPE svg PUBLIC "-//W3C//DTD SVG 1.1//EN" "http://www.w3.org/Graphics/SVG/1.1/DTD/svg11.dtd">
<svg version="1.1" id="レイヤー_1" xmlns="http://www.w3.org/2000/svg" xmlns:xlink="http://www.w3.org/1999/xlink" x="0px"
	 y="0px" width="62.329px" height="179.657px" viewBox="0 0 62.329 179.657" enable-background="new 0 0 62.329 179.657"
	 xml:space="preserve">
<g display="none">
	
		<linearGradient id="SVGID_1_" gradientUnits="userSpaceOnUse" x1="-978.9341" y1="536.3794" x2="-968.7417" y2="536.3794" gradientTransform="matrix(0.6943 -4.670327e-04 -6.849703e-04 -1 707.6206 653.582)">
		<stop  offset="0.1068" style="stop-color:#363636"/>
		<stop  offset="0.184" style="stop-color:#1F1F1F"/>
		<stop  offset="0.2627" style="stop-color:#303030"/>
		<stop  offset="0.5444" style="stop-color:#121212"/>
		<stop  offset="0.8736" style="stop-color:#000000"/>
		<stop  offset="0.9281" style="stop-color:#000000"/>
	</linearGradient>
	<path display="inline" fill="url(#SVGID_1_)" d="M32.362,178.657c2.908-0.002,2.283-14.484,2.283-14.484
		C32.946,61.799,32.944,62.116,32.944,59.902c0-1.855-1.855-3.245-1.855-3.245l0,0c0,0-1.854,1.393-1.853,3.249
		c0.002,1.854-1.559,104.27-1.559,104.27s-0.604,14.482,2.305,14.48H32.362z"/>
</g>
<g>
	
		<linearGradient id="SVGID_2_" gradientUnits="userSpaceOnUse" x1="-1132.5625" y1="-11.7378" x2="-1122.3677" y2="-11.7378" gradientTransform="matrix(0.7664 -1.883235e-04 -2.364367e-04 -1 895.2544 105.707)">
		<stop  offset="0" style="stop-color:#CF0009"/>
		<stop  offset="0.1251" style="stop-color:#D1010A"/>
		<stop  offset="0.3221" style="stop-color:#BF020A"/>
		<stop  offset="0.5199" style="stop-color:#9C0108"/>
		<stop  offset="0.8005" style="stop-color:#874232"/>
		<stop  offset="1" style="stop-color:#634244"/>
	</linearGradient>
	<path fill="url(#SVGID_2_)" d="M32.48,178.657c3.21-0.002,2.53-14.482,2.53-14.482C33.186,61.799,33.186,62.115,33.187,59.904
		c-0.001-1.856-2.049-3.248-2.049-3.248l0,0c0,0-2.045,1.392-2.045,3.249c0.001,1.854-1.777,104.269-1.777,104.269
		s-0.674,14.482,2.536,14.484L32.48,178.657z"/>
</g>
</svg>
